<svg id="visual" viewBox="0 0 1920 1080" width="1920" height="1080" xmlns="http://www.w3.org/2000/svg" xmlns:xlink="http://www.w3.org/1999/xlink" version="1.1"><g stroke-width="1" stroke-linejoin="bevel"><path d="M1035.7 556L882.3 559L882.3 737Z" fill="#464646" stroke="#464646"></path><path d="M882.3 737L1093.7 738L1035.7 556Z" fill="#868686" stroke="#868686"></path><path d="M882.3 737L1057.7 865L1093.7 738Z" fill="#6a6a6a" stroke="#6a6a6a"></path><path d="M678 693L842.3 889L882.3 737Z" fill="#999999" stroke="#999999"></path><path d="M882.3 737L842.3 889L1057.7 865Z" fill="#7c7c7c" stroke="#7c7c7c"></path><path d="M882.3 559L678 693L882.3 737Z" fill="#616161" stroke="#616161"></path><path d="M1316 864L1273 705L1093.7 738Z" fill="#999999" stroke="#999999"></path><path d="M1093.7 738L1273 705L1035.7 556Z" fill="#7c7c7c" stroke="#7c7c7c"></path><path d="M1285 391L1044.7 329L1035.7 556Z" fill="#737373" stroke="#737373"></path><path d="M1035.7 556L1044.7 329L882.3 559Z" fill="#999999" stroke="#999999"></path><path d="M882.3 559L621 536L678 693Z" fill="#7c7c7c" stroke="#7c7c7c"></path><path d="M1044.7 329L829.3 345L882.3 559Z" fill="#616161" stroke="#616161"></path><path d="M675 378L621 536L882.3 559Z" fill="#a3a3a3" stroke="#a3a3a3"></path><path d="M1273 705L1314 526L1035.7 556Z" fill="#6a6a6a" stroke="#6a6a6a"></path><path d="M829.3 345L675 378L882.3 559Z" fill="#7c7c7c" stroke="#7c7c7c"></path><path d="M1314 526L1285 391L1035.7 556Z" fill="#4f4f4f" stroke="#4f4f4f"></path><path d="M1264 1080L1316 864L1057.7 865Z" fill="#464646" stroke="#464646"></path><path d="M1057.7 865L1316 864L1093.7 738Z" fill="#999999" stroke="#999999"></path><path d="M1273 705L1485.3 704L1314 526Z" fill="#616161" stroke="#616161"></path><path d="M394.7 717L605 884L678 693Z" fill="#585858" stroke="#585858"></path><path d="M678 693L605 884L842.3 889Z" fill="#868686" stroke="#868686"></path><path d="M842.3 1080L1070.7 1080L842.3 889Z" fill="#999999" stroke="#999999"></path><path d="M842.3 889L1070.7 1080L1057.7 865Z" fill="#4f4f4f" stroke="#4f4f4f"></path><path d="M649 1080L842.3 1080L842.3 889Z" fill="#8f8f8f" stroke="#8f8f8f"></path><path d="M1044.7 329L859.3 198L829.3 345Z" fill="#585858" stroke="#585858"></path><path d="M829.3 345L629 174L675 378Z" fill="#8f8f8f" stroke="#8f8f8f"></path><path d="M1048.7 150L859.3 198L1044.7 329Z" fill="#4f4f4f" stroke="#4f4f4f"></path><path d="M1286 148L1048.7 150L1044.7 329Z" fill="#585858" stroke="#585858"></path><path d="M1316 864L1485.3 704L1273 705Z" fill="#737373" stroke="#737373"></path><path d="M1314 526L1473.3 366L1285 391Z" fill="#585858" stroke="#585858"></path><path d="M1070.7 1080L1264 1080L1057.7 865Z" fill="#4f4f4f" stroke="#4f4f4f"></path><path d="M1316 864L1522.3 903L1485.3 704Z" fill="#585858" stroke="#585858"></path><path d="M1485.3 704L1476.3 534L1314 526Z" fill="#585858" stroke="#585858"></path><path d="M1285 391L1286 148L1044.7 329Z" fill="#8f8f8f" stroke="#8f8f8f"></path><path d="M605 884L649 1080L842.3 889Z" fill="#4f4f4f" stroke="#4f4f4f"></path><path d="M621 536L394.7 717L678 693Z" fill="#999999" stroke="#999999"></path><path d="M605 884L440.7 1080L649 1080Z" fill="#7c7c7c" stroke="#7c7c7c"></path><path d="M400.7 519L394.7 717L621 536Z" fill="#616161" stroke="#616161"></path><path d="M436.7 381L621 536L675 378Z" fill="#a3a3a3" stroke="#a3a3a3"></path><path d="M436.7 381L400.7 519L621 536Z" fill="#4f4f4f" stroke="#4f4f4f"></path><path d="M829.3 0L629 174L859.3 198Z" fill="#6a6a6a" stroke="#6a6a6a"></path><path d="M859.3 198L629 174L829.3 345Z" fill="#8f8f8f" stroke="#8f8f8f"></path><path d="M1532.3 171L1473.3 366L1742.7 383Z" fill="#a3a3a3" stroke="#a3a3a3"></path><path d="M1476.3 534L1473.3 366L1314 526Z" fill="#999999" stroke="#999999"></path><path d="M629 174L436.7 381L675 378Z" fill="#a3a3a3" stroke="#a3a3a3"></path><path d="M1473.3 366L1286 148L1285 391Z" fill="#616161" stroke="#616161"></path><path d="M394.7 717L400.7 902L605 884Z" fill="#737373" stroke="#737373"></path><path d="M1501.3 1080L1522.3 903L1316 864Z" fill="#a3a3a3" stroke="#a3a3a3"></path><path d="M1742.7 383L1473.3 366L1476.3 534Z" fill="#999999" stroke="#999999"></path><path d="M1285 0L1030.7 0L1048.7 150Z" fill="#a3a3a3" stroke="#a3a3a3"></path><path d="M1048.7 150L1030.7 0L859.3 198Z" fill="#616161" stroke="#616161"></path><path d="M1030.7 0L829.3 0L859.3 198Z" fill="#585858" stroke="#585858"></path><path d="M400.7 902L440.7 1080L605 884Z" fill="#6a6a6a" stroke="#6a6a6a"></path><path d="M428.7 0L454.7 188L629 174Z" fill="#585858" stroke="#585858"></path><path d="M629 174L454.7 188L436.7 381Z" fill="#6a6a6a" stroke="#6a6a6a"></path><path d="M247.3 532L394.7 717L400.7 519Z" fill="#868686" stroke="#868686"></path><path d="M1264 1080L1501.3 1080L1316 864Z" fill="#868686" stroke="#868686"></path><path d="M394.7 717L206.3 860L400.7 902Z" fill="#868686" stroke="#868686"></path><path d="M400.7 902L242.3 1080L440.7 1080Z" fill="#999999" stroke="#999999"></path><path d="M247.3 532L247.3 712L394.7 717Z" fill="#737373" stroke="#737373"></path><path d="M247.3 532L400.7 519L198.3 374Z" fill="#8f8f8f" stroke="#8f8f8f"></path><path d="M829.3 0L648 0L629 174Z" fill="#737373" stroke="#737373"></path><path d="M198.3 374L400.7 519L436.7 381Z" fill="#6a6a6a" stroke="#6a6a6a"></path><path d="M1457.3 0L1285 0L1286 148Z" fill="#464646" stroke="#464646"></path><path d="M1286 148L1285 0L1048.7 150Z" fill="#6a6a6a" stroke="#6a6a6a"></path><path d="M1726.7 558L1476.3 534L1485.3 704Z" fill="#6a6a6a" stroke="#6a6a6a"></path><path d="M1473.3 366L1532.3 171L1286 148Z" fill="#7c7c7c" stroke="#7c7c7c"></path><path d="M1743.7 692L1485.3 704L1522.3 903Z" fill="#868686" stroke="#868686"></path><path d="M1743.7 692L1726.7 558L1485.3 704Z" fill="#a3a3a3" stroke="#a3a3a3"></path><path d="M1501.3 1080L1681.7 939L1522.3 903Z" fill="#464646" stroke="#464646"></path><path d="M0 729L206.3 860L247.3 712Z" fill="#7c7c7c" stroke="#7c7c7c"></path><path d="M247.3 712L206.3 860L394.7 717Z" fill="#616161" stroke="#616161"></path><path d="M1681.7 939L1743.7 692L1522.3 903Z" fill="#737373" stroke="#737373"></path><path d="M250.3 183L198.3 374L436.7 381Z" fill="#585858" stroke="#585858"></path><path d="M0 528L0 729L247.3 712Z" fill="#464646" stroke="#464646"></path><path d="M250.3 183L436.7 381L454.7 188Z" fill="#464646" stroke="#464646"></path><path d="M1670.7 0L1457.3 0L1532.3 171Z" fill="#6a6a6a" stroke="#6a6a6a"></path><path d="M1532.3 171L1457.3 0L1286 148Z" fill="#999999" stroke="#999999"></path><path d="M1726.7 558L1742.7 383L1476.3 534Z" fill="#464646" stroke="#464646"></path><path d="M1920 512L1742.7 383L1726.7 558Z" fill="#6a6a6a" stroke="#6a6a6a"></path><path d="M206.3 860L242.3 1080L400.7 902Z" fill="#737373" stroke="#737373"></path><path d="M648 0L428.7 0L629 174Z" fill="#4f4f4f" stroke="#4f4f4f"></path><path d="M1501.3 1080L1689.7 1080L1681.7 939Z" fill="#a3a3a3" stroke="#a3a3a3"></path><path d="M1920 895L1920 742L1743.7 692Z" fill="#6a6a6a" stroke="#6a6a6a"></path><path d="M428.7 0L250.3 183L454.7 188Z" fill="#8f8f8f" stroke="#8f8f8f"></path><path d="M1920 331L1742.7 197L1742.7 383Z" fill="#6a6a6a" stroke="#6a6a6a"></path><path d="M1742.7 383L1742.7 197L1532.3 171Z" fill="#4f4f4f" stroke="#4f4f4f"></path><path d="M1742.7 197L1670.7 0L1532.3 171Z" fill="#8f8f8f" stroke="#8f8f8f"></path><path d="M1920 895L1743.7 692L1681.7 939Z" fill="#4f4f4f" stroke="#4f4f4f"></path><path d="M1743.7 692L1920 512L1726.7 558Z" fill="#616161" stroke="#616161"></path><path d="M0 528L247.3 712L247.3 532Z" fill="#464646" stroke="#464646"></path><path d="M206.3 860L0 917L242.3 1080Z" fill="#616161" stroke="#616161"></path><path d="M0 528L247.3 532L198.3 374Z" fill="#4f4f4f" stroke="#4f4f4f"></path><path d="M0 360L0 528L198.3 374Z" fill="#a3a3a3" stroke="#a3a3a3"></path><path d="M1920 742L1920 512L1743.7 692Z" fill="#4f4f4f" stroke="#4f4f4f"></path><path d="M1742.7 197L1920 0L1670.7 0Z" fill="#a3a3a3" stroke="#a3a3a3"></path><path d="M428.7 0L227.3 0L250.3 183Z" fill="#616161" stroke="#616161"></path><path d="M0 150L0 360L198.3 374Z" fill="#999999" stroke="#999999"></path><path d="M1920 1080L1920 895L1681.7 939Z" fill="#4f4f4f" stroke="#4f4f4f"></path><path d="M0 729L0 917L206.3 860Z" fill="#868686" stroke="#868686"></path><path d="M0 150L198.3 374L250.3 183Z" fill="#616161" stroke="#616161"></path><path d="M1920 512L1920 331L1742.7 383Z" fill="#616161" stroke="#616161"></path><path d="M1920 331L1920 218L1742.7 197Z" fill="#616161" stroke="#616161"></path><path d="M1689.7 1080L1920 1080L1681.7 939Z" fill="#868686" stroke="#868686"></path><path d="M0 917L0 1080L242.3 1080Z" fill="#6a6a6a" stroke="#6a6a6a"></path><path d="M227.3 0L0 150L250.3 183Z" fill="#4f4f4f" stroke="#4f4f4f"></path><path d="M1920 218L1920 0L1742.7 197Z" fill="#585858" stroke="#585858"></path><path d="M227.3 0L0 0L0 150Z" fill="#737373" stroke="#737373"></path></g></svg>